<svg width="36" height="31" viewBox="0 0 36 31" fill="none" xmlns="http://www.w3.org/2000/svg">
<path d="M1.25 10.4436C1.25003 8.58892 1.81266 6.7779 2.86356 5.2497C3.91446 3.7215 5.40419 2.54802 7.13601 1.88425C8.86783 1.22049 10.7603 1.09766 12.5634 1.532C14.3664 1.96633 15.9954 2.93739 17.235 4.31692C17.3223 4.41028 17.4279 4.48471 17.5451 4.53559C17.6624 4.58647 17.7888 4.61273 17.9167 4.61273C18.0445 4.61273 18.1709 4.58647 18.2882 4.53559C18.4055 4.48471 18.511 4.41028 18.5983 4.31692C19.8341 2.92842 21.4634 1.9492 23.2694 1.50959C25.0754 1.06998 26.9725 1.19083 28.7081 1.85606C30.4438 2.52129 31.9356 3.69934 32.9852 5.23343C34.0347 6.76751 34.5922 8.58486 34.5833 10.4436C34.5833 14.2603 32.0833 17.1103 29.5833 19.6103L20.43 28.4653C20.1194 28.8219 19.7365 29.1084 19.3067 29.3058C18.8769 29.5031 18.4101 29.6067 17.9371 29.6097C17.4642 29.6127 16.9961 29.515 16.5638 29.3231C16.1315 29.1313 15.745 28.8496 15.43 28.4969L6.25 19.6103C3.75 17.1103 1.25 14.2769 1.25 10.4436Z" stroke="#30C5FF" stroke-width="2.5" stroke-linecap="round" stroke-linejoin="round"/>
</svg>
