<svg width="36" height="36" viewBox="0 0 36 36" fill="none" xmlns="http://www.w3.org/2000/svg">
<path d="M16.2823 2.61066C16.3537 2.22833 16.5566 1.88302 16.8558 1.63452C17.155 1.38603 17.5317 1.25 17.9207 1.25C18.3096 1.25 18.6863 1.38603 18.9855 1.63452C19.2847 1.88302 19.4876 2.22833 19.559 2.61066L21.3107 11.874C21.4351 12.5326 21.7551 13.1384 22.229 13.6123C22.703 14.0862 23.3087 14.4062 23.9673 14.5307L33.2307 16.2823C33.613 16.3537 33.9583 16.5566 34.2068 16.8558C34.4553 17.155 34.5913 17.5317 34.5913 17.9207C34.5913 18.3096 34.4553 18.6863 34.2068 18.9855C33.9583 19.2847 33.613 19.4876 33.2307 19.559L23.9673 21.3107C23.3087 21.4351 22.703 21.7551 22.229 22.229C21.7551 22.703 21.4351 23.3087 21.3107 23.9673L19.559 33.2307C19.4876 33.613 19.2847 33.9583 18.9855 34.2068C18.6863 34.4553 18.3096 34.5913 17.9207 34.5913C17.5317 34.5913 17.155 34.4553 16.8558 34.2068C16.5566 33.9583 16.3537 33.613 16.2823 33.2307L14.5307 23.9673C14.4062 23.3087 14.0862 22.703 13.6123 22.229C13.1384 21.7551 12.5326 21.4351 11.874 21.3107L2.61066 19.559C2.22833 19.4876 1.88302 19.2847 1.63452 18.9855C1.38603 18.6863 1.25 18.3096 1.25 17.9207C1.25 17.5317 1.38603 17.155 1.63452 16.8558C1.88302 16.5566 2.22833 16.3537 2.61066 16.2823L11.874 14.5307C12.5326 14.4062 13.1384 14.0862 13.6123 13.6123C14.0862 13.1384 14.4062 12.5326 14.5307 11.874L16.2823 2.61066Z" stroke="#30C5FF" stroke-width="2.5" stroke-linecap="round" stroke-linejoin="round"/>
</svg>
